<svg width="116" height="112" viewBox="0 0 116 112" fill="none" xmlns="http://www.w3.org/2000/svg">
<path d="M68.4556 0C55.5031 33.2369 43.0336 67.7787 31.0977 101.408L29.8905 104.803C29.5305 105.669 29.3865 106.649 29.6322 107.607C29.7211 107.966 29.8439 108.338 30.0854 108.756L25.9811 102.426L116 110.816L115.979 111.298C97.0415 111.378 17.2515 111.699 0 111.771L21.4617 105.335C22.8468 104.917 23.8463 103.879 24.325 102.595C26.951 96.6747 31.8728 85.5605 34.5454 79.5305C45.9561 53.4764 57.7438 26.3244 68.4556 0Z" fill="white"/>
<path d="M40.9751 64.8228C52.8559 62.5045 76.5074 57.8215 85.5801 67.6478C95.2499 78.517 83.1277 100.285 77.9857 111.395L72.2337 107.759C74.5718 104.892 76.7023 101.877 78.6888 98.7776C84.356 89.7241 93.0855 72.373 79.9044 65.8869C70.3912 61.6895 57.1762 64.2823 47.5021 67.1833C45.7698 67.7322 43.9739 68.3361 42.322 69.0328L40.9793 64.8228H40.9751Z" fill="white"/>
<path d="M100.134 55.7397C99.9048 63.8727 89.9427 67.6689 84.1908 62.1033C79.4935 57.6146 80.9167 49.5661 86.91 46.9269C93.238 44.0893 100.371 48.8314 100.134 55.7439V55.7397ZM98.3758 55.7397C98.1047 49.051 89.9724 45.563 84.9701 50.1573C80.6795 54.0422 81.9756 61.2419 87.3675 63.4504C92.7467 65.7222 98.6087 61.4235 98.3758 55.7397Z" fill="white"/>
</svg>
